<svg width="167" height="24" viewBox="0 0 167 24" fill="none" xmlns="http://www.w3.org/2000/svg">
<path d="M6.93555 1.58398C8.87891 1.58398 10.4805 1.81836 11.7402 2.28711C13.0098 2.75586 13.9521 3.46387 14.5674 4.41113C15.1826 5.3584 15.4902 6.55469 15.4902 8C15.4902 8.97656 15.3047 9.83105 14.9336 10.5635C14.5625 11.2959 14.0742 11.916 13.4688 12.4238C12.8633 12.9316 12.209 13.3467 11.5059 13.6689L17.8047 23H12.7656L7.65332 14.7822H5.23633V23H0.695312V1.58398H6.93555ZM6.61328 5.30469H5.23633V11.0908H6.70117C8.20508 11.0908 9.2793 10.8418 9.92383 10.3438C10.5781 9.83594 10.9053 9.09375 10.9053 8.11719C10.9053 7.10156 10.5537 6.37891 9.85059 5.94922C9.15723 5.51953 8.07812 5.30469 6.61328 5.30469ZM26.9014 6.31543C28.415 6.31543 29.7188 6.6084 30.8125 7.19434C31.9062 7.77051 32.751 8.61035 33.3467 9.71387C33.9424 10.8174 34.2402 12.165 34.2402 13.7568V15.9248H23.6787C23.7275 17.1846 24.1035 18.1758 24.8066 18.8984C25.5195 19.6113 26.5059 19.9678 27.7656 19.9678C28.8105 19.9678 29.7676 19.8604 30.6367 19.6455C31.5059 19.4307 32.3994 19.1084 33.3174 18.6787V22.1357C32.5068 22.5361 31.6572 22.8291 30.7686 23.0146C29.8896 23.2002 28.8203 23.293 27.5605 23.293C25.9199 23.293 24.4648 22.9902 23.1953 22.3848C21.9355 21.7793 20.9443 20.8564 20.2217 19.6162C19.5088 18.376 19.1523 16.8135 19.1523 14.9287C19.1523 13.0146 19.4746 11.4229 20.1191 10.1533C20.7734 8.87402 21.6816 7.91699 22.8438 7.28223C24.0059 6.6377 25.3584 6.31543 26.9014 6.31543ZM26.9307 9.49414C26.0615 9.49414 25.3389 9.77246 24.7627 10.3291C24.1963 10.8857 23.8691 11.7598 23.7812 12.9512H30.0508C30.041 12.2871 29.9189 11.6963 29.6846 11.1787C29.46 10.6611 29.1182 10.251 28.6592 9.94824C28.21 9.64551 27.6338 9.49414 26.9307 9.49414ZM49.2988 18.1367C49.2988 19.25 49.0352 20.1924 48.5078 20.9639C47.9902 21.7256 47.2139 22.3066 46.1787 22.707C45.1436 23.0977 43.8545 23.293 42.3115 23.293C41.1689 23.293 40.1875 23.2197 39.3672 23.0732C38.5566 22.9268 37.7363 22.6826 36.9062 22.3408V18.6494C37.7949 19.0498 38.7471 19.3818 39.7627 19.6455C40.7881 19.8994 41.6865 20.0264 42.458 20.0264C43.3271 20.0264 43.9473 19.8994 44.3184 19.6455C44.6992 19.3818 44.8896 19.04 44.8896 18.6201C44.8896 18.3467 44.8115 18.1025 44.6553 17.8877C44.5088 17.6631 44.1865 17.4141 43.6885 17.1406C43.1904 16.8574 42.4092 16.4912 41.3447 16.042C40.3193 15.6123 39.4746 15.1777 38.8105 14.7383C38.1562 14.2988 37.668 13.7812 37.3457 13.1855C37.0332 12.5801 36.877 11.8135 36.877 10.8857C36.877 9.37207 37.4629 8.23438 38.6348 7.47266C39.8164 6.70117 41.3936 6.31543 43.3662 6.31543C44.3818 6.31543 45.3486 6.41797 46.2666 6.62305C47.1943 6.82812 48.1465 7.15527 49.123 7.60449L47.7754 10.8271C46.9648 10.4756 46.1982 10.1875 45.4756 9.96289C44.7627 9.73828 44.0352 9.62598 43.293 9.62598C42.6387 9.62598 42.1455 9.71387 41.8135 9.88965C41.4814 10.0654 41.3154 10.334 41.3154 10.6953C41.3154 10.959 41.3984 11.1934 41.5645 11.3984C41.7402 11.6035 42.0723 11.833 42.5605 12.0869C43.0586 12.3311 43.7861 12.6484 44.7432 13.0391C45.6709 13.4199 46.4766 13.8203 47.1602 14.2402C47.8438 14.6504 48.3711 15.1631 48.7422 15.7783C49.1133 16.3838 49.2988 17.1699 49.2988 18.1367ZM67.8145 6.62305V23H64.3867L63.7861 20.9053H63.5518C63.2002 21.4619 62.7607 21.916 62.2334 22.2676C61.7061 22.6191 61.125 22.8779 60.4902 23.0439C59.8555 23.21 59.1963 23.293 58.5127 23.293C57.3408 23.293 56.3203 23.0879 55.4512 22.6777C54.582 22.2578 53.9033 21.6084 53.415 20.7295C52.9365 19.8506 52.6973 18.708 52.6973 17.3018V6.62305H57.165V16.1885C57.165 17.3604 57.375 18.2441 57.7949 18.8398C58.2148 19.4355 58.8838 19.7334 59.8018 19.7334C60.71 19.7334 61.4229 19.5283 61.9404 19.1182C62.458 18.6982 62.8193 18.0879 63.0244 17.2871C63.2393 16.4766 63.3467 15.4902 63.3467 14.3281V6.62305H67.8145ZM91.7354 6.31543C93.5908 6.31543 94.9922 6.79395 95.9395 7.75098C96.8965 8.69824 97.375 10.2217 97.375 12.3213V23H92.8926V13.4346C92.8926 12.2627 92.6924 11.3789 92.292 10.7832C91.8916 10.1875 91.2715 9.88965 90.4316 9.88965C89.25 9.88965 88.4102 10.3145 87.9121 11.1641C87.4141 12.0039 87.165 13.21 87.165 14.7822V23H82.6973V13.4346C82.6973 12.6533 82.6094 11.999 82.4336 11.4717C82.2578 10.9443 81.9893 10.5488 81.6279 10.2852C81.2666 10.0215 80.8027 9.88965 80.2363 9.88965C79.4062 9.88965 78.752 10.0996 78.2734 10.5195C77.8047 10.9297 77.4678 11.54 77.2627 12.3506C77.0674 13.1514 76.9697 14.1328 76.9697 15.2949V23H72.502V6.62305H75.915L76.5156 8.71777H76.7646C77.0967 8.15137 77.5117 7.69238 78.0098 7.34082C78.5176 6.98926 79.0742 6.73047 79.6797 6.56445C80.2852 6.39844 80.9004 6.31543 81.5254 6.31543C82.7266 6.31543 83.7422 6.51074 84.5723 6.90137C85.4121 7.29199 86.0566 7.89746 86.5059 8.71777H86.9014C87.3896 7.87793 88.0781 7.26758 88.9668 6.88672C89.8652 6.50586 90.7881 6.31543 91.7354 6.31543ZM108.728 6.31543C110.241 6.31543 111.545 6.6084 112.639 7.19434C113.732 7.77051 114.577 8.61035 115.173 9.71387C115.769 10.8174 116.066 12.165 116.066 13.7568V15.9248H105.505C105.554 17.1846 105.93 18.1758 106.633 18.8984C107.346 19.6113 108.332 19.9678 109.592 19.9678C110.637 19.9678 111.594 19.8604 112.463 19.6455C113.332 19.4307 114.226 19.1084 115.144 18.6787V22.1357C114.333 22.5361 113.483 22.8291 112.595 23.0146C111.716 23.2002 110.646 23.293 109.387 23.293C107.746 23.293 106.291 22.9902 105.021 22.3848C103.762 21.7793 102.771 20.8564 102.048 19.6162C101.335 18.376 100.979 16.8135 100.979 14.9287C100.979 13.0146 101.301 11.4229 101.945 10.1533C102.6 8.87402 103.508 7.91699 104.67 7.28223C105.832 6.6377 107.185 6.31543 108.728 6.31543ZM108.757 9.49414C107.888 9.49414 107.165 9.77246 106.589 10.3291C106.022 10.8857 105.695 11.7598 105.607 12.9512H111.877C111.867 12.2871 111.745 11.6963 111.511 11.1787C111.286 10.6611 110.944 10.251 110.485 9.94824C110.036 9.64551 109.46 9.49414 108.757 9.49414Z" fill="#141C47"/>
<path d="M120.285 23V1.58398H122.775V20.7734H132.282V23H120.285ZM138.024 6.94531V23H135.593V6.94531H138.024ZM136.838 0.939453C137.238 0.939453 137.58 1.07129 137.863 1.33496C138.156 1.58887 138.303 1.98926 138.303 2.53613C138.303 3.07324 138.156 3.47363 137.863 3.7373C137.58 4.00098 137.238 4.13281 136.838 4.13281C136.418 4.13281 136.066 4.00098 135.783 3.7373C135.51 3.47363 135.373 3.07324 135.373 2.53613C135.373 1.98926 135.51 1.58887 135.783 1.33496C136.066 1.07129 136.418 0.939453 136.838 0.939453ZM148.366 21.3008C148.767 21.3008 149.177 21.2666 149.597 21.1982C150.017 21.1299 150.358 21.0469 150.622 20.9492V22.8389C150.339 22.9658 149.943 23.0732 149.436 23.1611C148.938 23.249 148.449 23.293 147.971 23.293C147.121 23.293 146.35 23.1465 145.656 22.8535C144.963 22.5508 144.406 22.043 143.986 21.3301C143.576 20.6172 143.371 19.6309 143.371 18.3711V8.84961H141.086V7.66309L143.386 6.71094L144.353 3.22461H145.817V6.94531H150.52V8.84961H145.817V18.2979C145.817 19.3037 146.047 20.0557 146.506 20.5537C146.975 21.0518 147.595 21.3008 148.366 21.3008ZM160.056 6.65234C161.423 6.65234 162.595 6.95508 163.571 7.56055C164.548 8.16602 165.295 9.01562 165.812 10.1094C166.33 11.1934 166.589 12.4629 166.589 13.918V15.4268H155.5C155.529 17.3115 155.998 18.7471 156.906 19.7334C157.814 20.7197 159.094 21.2129 160.744 21.2129C161.76 21.2129 162.658 21.1201 163.439 20.9346C164.221 20.749 165.031 20.4756 165.871 20.1143V22.2529C165.061 22.6143 164.255 22.8779 163.454 23.0439C162.663 23.21 161.726 23.293 160.642 23.293C159.099 23.293 157.751 22.9805 156.599 22.3555C155.456 21.7207 154.567 20.793 153.933 19.5723C153.298 18.3516 152.98 16.8574 152.98 15.0898C152.98 13.3613 153.269 11.8672 153.845 10.6074C154.431 9.33789 155.251 8.36133 156.306 7.67773C157.37 6.99414 158.62 6.65234 160.056 6.65234ZM160.026 8.64453C158.728 8.64453 157.692 9.06934 156.921 9.91895C156.149 10.7686 155.69 11.9551 155.544 13.4785H164.04C164.03 12.5215 163.879 11.6816 163.586 10.959C163.303 10.2266 162.868 9.66016 162.282 9.25977C161.696 8.84961 160.944 8.64453 160.026 8.64453Z" fill="#F9CB81"/>
</svg>
